# xmcd
#
# Track frame offsets:
#	180
#	4918
#	16826
#	36041
#	50314
#	64852
#	83075
#	105612
#	124928
#	141816
#	157773
#	176773
#	199004
#	218799
#	227971
#
# Disc length: 3284 seconds
#
# Revision: 1
# Processed by: cddbd v1.5.2PL0 Copyright (c) Steve Scherf et al.
# Submitted via: audiograbber 1.83.01
#
DISCID=c20cd20f
DTITLE=4 Deep - All Dat 'N' Den Some
DYEAR=1997
DGENRE=Rap
TTITLE0=Intro
TTITLE1=The Beginning Of The End
TTITLE2=Ruff Shit
TTITLE3=Lyrical Torture
TTITLE4=Feel The Funk
TTITLE5=Da Bomb
TTITLE6=I Getz Ill
TTITLE7=Peep Da Style
TTITLE8=Rum
TTITLE9=Slap Me A Pound
TTITLE10=I Warned Ya
TTITLE11=Throw Yo Hands In D Air
TTITLE12=Bettaway
TTITLE13=Trapped Between The Crax
TTITLE14=Straight From The South
EXTD=
EXTT0=
EXTT1=
EXTT2=
EXTT3=
EXTT4=
EXTT5=
EXTT6=
EXTT7=
EXTT8=
EXTT9=
EXTT10=
EXTT11=
EXTT12=
EXTT13=
EXTT14=
PLAYORDER=
